# VYOMAAV Engine Reconstructed 3D Mesh
v -0.308462 0.268684 -0.098528
v -0.229312 -0.369444 -0.221002
v -0.050175 -0.384725 0.129609
v 0.063369 0.150901 0.109049
v 0.244605 0.291903 -0.263036
v 0.281473 -0.258836 0.130217
v -0.256271 0.410420 0.077085
v 0.054726 -0.091077 -0.201878
v -0.061230 0.344675 -0.231261
v 0.389173 0.255212 -0.330237
v 0.062762 0.037595 -0.147413
v -0.224002 0.205682 -0.370231
v 0.142286 0.112890 0.208247
v -0.167909 -0.112993 0.433170
v 0.360310 0.280429 0.418303
v -0.441448 -0.210566 0.245712
v -0.320542 -0.176728 -0.137500
v -0.188113 -0.023910 -0.018838
v -0.217894 0.044403 -0.037829
v -0.180786 0.390997 -0.434247
v -0.246622 0.017237 -0.077956
v 0.074663 0.171617 -0.021714
v 0.396279 -0.029356 -0.237216
v -0.066612 0.194921 -0.197530
v 0.083733 -0.289066 0.414940
v -0.101042 -0.325418 0.027448
v -0.024044 -0.231634 0.100122
v -0.406806 0.142256 0.187380
v -0.397849 0.299431 0.125806
v -0.028326 0.050388 -0.057340
v 0.164969 0.266163 -0.128265
v 0.126432 0.169115 0.203601
v 0.193167 -0.023012 0.367432
v 0.195683 -0.091489 0.198394
v -0.076705 -0.037553 0.185026
v 0.147121 0.100567 -0.089189
v 0.133702 0.055764 -0.090461
v 0.154626 0.478350 0.079612
v 0.344195 -0.270182 -0.160055
v 0.228375 -0.112982 -0.009274
v -0.367856 -0.030297 0.012589
v -0.092996 -0.118633 0.364994
v -0.108369 0.244621 0.033800
v -0.375393 0.098864 0.154660
v 0.137728 -0.063660 -0.133682
v 0.173567 0.101865 0.151413
v 0.054313 -0.191891 0.004141
v 0.018177 0.134947 -0.039765
v -0.372701 -0.012234 0.010762
v 0.059864 -0.259671 -0.241431
v -0.250913 0.094949 0.130234
v -0.132894 0.243639 0.298130
v 0.079817 0.106003 0.014676
v -0.006261 -0.277678 0.247985
v 0.055782 -0.098046 -0.365894
v 0.235272 -0.005730 -0.254933
v 0.034766 0.060379 -0.248245
v 0.147991 -0.305530 -0.173109
v 0.009121 -0.079780 -0.274663
v -0.152742 -0.248960 0.067725
v -0.257551 0.086613 -0.224002
v 0.226267 -0.126043 -0.326944
v 0.072016 -0.458535 0.330369
v 0.115172 0.160161 -0.153849
v 0.271012 0.108521 -0.092950
v -0.122619 0.331596 0.306289
v -0.062897 -0.043291 0.047959
v 0.128834 -0.260328 -0.138667
v 0.092976 -0.105901 -0.014399
v -0.209680 0.033497 0.026857
v 0.249442 0.009802 0.103876
v -0.148747 0.292711 0.021050
v 0.179519 -0.292292 0.222696
v -0.426835 -0.264542 0.134144
v 0.105813 -0.074012 0.169034
v -0.106256 -0.218852 0.107835
v -0.081269 -0.182007 -0.349270
v 0.166224 -0.018571 -0.048229
v -0.285435 0.190736 -0.113419
v 0.324465 0.250436 -0.022067
v 0.053647 0.263547 0.157326
v -0.410997 -0.382955 0.230284
v 0.215650 -0.209856 -0.434145
v -0.473128 0.488842 -0.155692
v -0.306480 -0.330933 0.179175
v 0.084658 -0.081788 0.261181
v 0.169599 0.065643 0.249226
v 0.165911 0.320532 0.004151
v -0.387694 -0.100835 0.210306
v -0.028787 0.297972 0.194391
v -0.303931 -0.112795 0.287464
v 0.062774 -0.157656 -0.104491
v -0.082535 0.114136 0.378213
v 0.073530 0.315599 -0.132797
v 0.334825 0.442816 -0.269370
v -0.397235 -0.338440 0.041889
v -0.278977 -0.381776 0.277297
v 0.051825 0.326069 -0.482928
v -0.133901 0.054260 -0.355082
v -0.115426 -0.122015 -0.131611
v 0.196528 -0.186617 0.287553
v -0.106745 0.230557 -0.172457
v -0.131746 -0.148650 0.369166
v 0.219632 0.378887 0.147576
v 0.116762 0.125988 0.024346
v 0.203144 0.091949 -0.352056
v 0.009306 -0.071558 0.058374
v -0.197577 -0.308653 0.414888
v 0.361604 -0.084976 -0.229053
v -0.158932 0.331156 -0.357377
v 0.146080 0.277785 0.422577
v 0.257391 -0.127613 -0.051961
v 0.134357 -0.271246 -0.137685
v 0.132225 -0.412870 0.313870
v -0.233042 -0.286591 -0.074280
v 0.183117 0.070103 -0.177078
v -0.016625 0.461179 0.009744
v -0.164057 -0.373452 -0.058408
v 0.245567 -0.292866 -0.112800
v -0.304610 -0.000387 0.143397
v -0.455374 -0.430699 0.024536
v -0.332130 0.126470 -0.299463
v -0.329901 0.066826 -0.274225
v -0.084252 -0.116272 0.092900
v 0.013529 -0.111444 0.050294
v 0.223341 0.183940 0.091638
v -0.522836 0.004784 -0.150540
v 0.047180 -0.052856 0.211881
v -0.033961 -0.185622 0.027897
v 0.191518 0.199123 0.070270
v -0.087189 -0.151213 -0.028283
v 0.063370 0.177035 -0.187967
v -0.097918 -0.074658 -0.074893
v -0.086178 0.210240 0.083013
v -0.051323 -0.236028 0.203593
v 0.124058 0.151295 0.207270
v -0.142761 -0.169708 -0.071546
v -0.266843 0.028606 -0.033782
v 0.154587 -0.186772 0.238848
v 0.208413 -0.087588 0.154370
v 0.143004 0.084787 0.002420
v -0.035084 -0.117494 -0.153617
v 0.128055 0.054448 0.140824
v -0.133793 0.165564 0.048869
v -0.090730 -0.080106 -0.100068
v -0.203550 -0.022611 0.059600
v 0.019985 -0.199019 0.276519
v -0.149485 0.191175 -0.062053
v 0.007163 0.109045 -0.178279
v 0.199248 -0.176206 0.013541
v 0.162865 0.084925 0.200346
v -0.147398 0.114329 -0.170738
v -0.135805 -0.167446 0.173562
v -0.104603 0.073197 0.004754
v 0.063674 -0.158844 0.179599
v 0.162041 -0.178000 0.219425
v -0.163707 -0.141919 -0.001435
v -0.124261 -0.219192 0.146884
v -0.194634 -0.073814 0.211558
v -0.222170 -0.101137 -0.111122
v 0.192078 0.064505 -0.174634
v 0.165572 0.120890 0.270507
v 0.207637 -0.186554 0.192956
v 0.199862 -0.019674 -0.060169
v 0.198561 0.025947 -0.179183
v 0.108478 0.031825 -0.194394
v -0.030059 -0.006998 -0.035668
v -0.243102 -0.196858 -0.173772
v -0.017745 -0.252399 0.106419
v -0.150262 -0.191449 -0.041082
v -0.270205 0.009719 -0.067529
v 0.039513 -0.163470 -0.036855
v -0.089674 -0.158169 -0.146648
v 0.108892 -0.140581 0.071344
v -0.048840 0.093032 0.177937
v -0.127369 0.130256 0.150632
v 0.030143 0.010593 0.072866
v -0.042883 0.067531 -0.140051
v -0.148664 -0.234990 0.200092
v 0.045902 0.092310 -0.185601
v -0.254267 0.157706 0.101964
v 0.008175 0.126308 -0.120515
v -0.053897 0.123351 0.044531
v -0.034487 0.186157 0.019375
v -0.032687 0.169112 0.049443
v 0.195093 -0.007214 0.231368
v -0.014016 -0.030050 -0.043870
v -0.209911 -0.237651 -0.021752
v -0.255087 -0.260910 0.146850
v -0.264147 0.039299 -0.095589
v -0.079623 -0.211870 -0.094289
v 0.082620 -0.022209 -0.196315
v 0.150423 -0.119455 -0.108422
v -0.215240 -0.099594 0.207700
v -0.202887 0.003400 0.085415
v 0.158022 -0.257483 0.006099
v -0.163057 0.191689 -0.070188
v -0.257130 -0.133540 -0.089542
v 0.208074 0.119987 -0.162918
v 0.090127 -0.173087 0.119005
v -0.076345 0.088600 0.191748
v -0.139870 -0.110539 -0.176410
v 0.049384 -0.209663 -0.101502
v -0.201833 0.044047 0.076243
v 0.096767 0.191567 -0.023941
v 0.005705 0.047982 0.215041
v -0.078060 0.155575 -0.011161
v -0.036907 0.001262 0.207306
v -0.118257 -0.086063 0.036729
v -0.121454 -0.236374 -0.034860
v 0.083598 -0.243005 -0.184210
v -0.047059 -0.003588 -0.091720
v -0.237141 -0.108635 0.058050
v 0.165151 -0.072734 0.178677
v 0.052223 -0.191305 0.000478
v -0.116425 0.102454 0.017114
v -0.037374 -0.099830 0.193572
v 0.088689 -0.239447 0.202578
v -0.250097 -0.200363 0.277298
v -0.202408 0.192014 0.023531
v 0.050284 -0.088384 -0.084433
v -0.053264 0.128236 0.145736
v -0.160346 0.027208 0.225271
v -0.163280 0.083339 0.145443
v -0.221347 -0.205107 -0.083982
v -0.021967 0.103640 -0.176603
v -0.034570 0.162133 0.197016
v -0.071820 -0.111419 0.078195
v -0.026243 -0.209139 0.041097
v 0.194019 0.056417 -0.084683
v 0.100600 0.060820 -0.097459
v 0.118409 -0.040156 0.083633
v -0.131496 -0.147435 -0.125392
v -0.083605 -0.151668 0.197853
v 0.104547 -0.104034 0.099518
v -0.042801 -0.034900 0.246614
v -0.230153 0.109279 -0.174696
v 0.144039 -0.139993 0.237671
v 0.054716 0.140442 -0.186047
v -0.070615 -0.238112 0.276930
v -0.002815 0.039612 -0.032166
v 0.097404 0.210484 0.170596
v 0.064257 -0.011087 -0.094991
v -0.265878 0.017429 -0.157366
v -0.204194 0.083319 0.198213
v -0.066370 0.001849 -0.030441
v -0.009239 -0.043334 -0.127658
v -0.252662 0.151086 -0.147003
v 0.040618 0.068548 -0.039518
v -0.107262 -0.219927 -0.194689
v 0.075909 0.130604 0.030413
v 0.163788 -0.135198 0.251615
v 0.037313 0.091926 -0.038627
v 0.131085 0.024639 -0.146086
v 0.098130 0.073823 -0.074211
v -0.071017 -0.177292 0.072444
f 119 60 77
f 106 117 57
f 97 48 45
f 111 55 48
f 126 2 98
f 125 24 29
f 124 128 102
f 24 18 86
f 93 87 56
f 40 120 1
f 53 10 48
f 89 26 78
f 38 39 66
f 64 109 111
f 79 121 90
f 93 127 49
f 68 35 101
f 22 5 25
f 103 52 72
f 63 108 118
f 28 73 109
f 2 56 84
f 1 123 63
f 26 106 2
f 15 48 102
f 98 28 67
f 55 102 63
f 14 62 110
f 52 42 108
f 59 115 95
f 84 38 40
f 75 90 86
f 39 28 76
f 9 83 75
f 42 69 100
f 25 102 53
f 66 80 85
f 4 25 1
f 9 10 115
f 95 110 122
f 113 70 123
f 70 49 72
f 93 59 30
f 117 107 117
f 45 73 31
f 32 69 3
f 125 94 61
f 45 87 55
f 30 115 126
f 3 49 56
f 92 85 108
f 61 68 41
f 56 115 100
f 30 1 27
f 8 54 38
f 36 15 109
f 62 10 87
f 89 46 54
f 104 57 25
f 81 96 96
f 65 30 76
f 99 23 37
f 5 110 119
f 41 126 24
f 71 30 9
f 76 43 127
f 106 84 19
f 94 80 82
f 80 111 77
f 43 94 63
f 7 9 51
f 95 4 76
f 80 59 54
f 88 106 27
f 113 6 124
f 19 86 30
f 39 87 46
f 17 124 126
f 95 51 112
f 18 15 91
f 87 99 82
f 39 13 51
f 55 38 45
f 17 91 15
f 86 27 11
f 8 39 35
f 50 69 5
f 57 111 5
f 127 23 29
f 38 48 46
f 80 16 33
f 73 66 102
f 31 117 60
f 110 66 41
f 115 32 50
f 101 64 115
f 99 91 9
f 127 82 91
f 87 42 104
f 27 83 14
f 2 76 70
f 29 68 75
f 49 65 4
f 108 21 118
f 77 17 40
f 113 44 65
f 76 119 5
f 26 69 128
f 68 116 26
f 62 57 90
f 86 35 115
f 42 40 105
f 117 19 125
f 113 49 21
f 85 97 62
f 44 53 83
f 79 1 45
f 66 16 80
f 18 128 57
f 18 49 98
f 74 70 97
f 120 74 41
f 56 3 46
f 24 112 84
f 6 125 93
f 7 122 9
f 110 126 114
f 24 28 16
f 24 9 25
f 10 63 27
f 28 91 42
f 106 120 3
f 36 77 121
f 81 73 70
f 24 22 39
f 106 32 62
f 55 117 25
f 84 9 73
f 63 121 15
f 83 40 28
f 27 27 117
f 1 65 82
f 99 53 67
f 1 30 48
f 36 33 41
f 14 1 113
f 48 103 69
f 123 84 63
f 119 23 44
f 17 16 121
f 54 84 7
f 100 56 32
f 17 5 60
f 13 16 7
f 51 120 111
f 116 29 84
f 30 37 87
f 124 78 57
f 82 75 113
f 15 90 88
f 57 65 110
f 83 8 89
f 68 1 33
f 109 55 19
f 24 28 9
f 34 126 1
f 126 75 21
f 1 75 90
f 114 54 65
f 37 59 55
f 30 52 10
f 128 124 10
f 75 62 116
f 128 81 127
f 101 114 33
f 60 24 55
f 52 96 37
f 24 8 105
f 38 124 94
f 120 59 111
f 35 24 93
f 101 61 125
f 99 24 20
f 83 105 33
f 16 25 79
f 98 74 102
f 36 84 15
f 12 48 46
f 66 2 25
f 34 1 59
f 55 83 51
f 127 107 103
f 88 89 94
f 121 85 51
f 126 82 109
f 90 111 52
f 26 20 47
f 2 64 38
f 9 33 120
f 124 60 55
f 44 71 46
f 24 17 58
f 16 58 55
f 120 65 78
f 73 107 113
f 38 22 14
f 41 20 44
f 29 54 38
f 18 114 26
f 106 22 8
f 15 79 49
f 123 77 31
f 40 3 56
f 106 19 24
f 74 114 98
f 20 123 88
f 122 105 102
f 16 32 87
f 128 100 85
f 43 93 15
f 84 4 57
f 47 107 112
f 26 50 62
f 37 107 64
f 69 66 103
f 44 51 93
f 6 20 82
f 65 95 122
f 100 40 44
f 95 122 100
f 10 17 122
f 82 49 124
f 27 50 22
f 105 67 70
f 79 10 28
f 50 98 22
f 105 96 79
f 113 83 54
f 8 40 97
f 35 89 3
