ply
format ascii 1.0
element vertex 256
property float x
property float y
property float z
end_header
-0.308462 0.268684 -0.098528
-0.229312 -0.369444 -0.221002
-0.050175 -0.384725 0.129609
0.063369 0.150901 0.109049
0.244605 0.291903 -0.263036
0.281473 -0.258836 0.130217
-0.256271 0.410420 0.077085
0.054726 -0.091077 -0.201878
-0.061230 0.344675 -0.231261
0.389173 0.255212 -0.330237
0.062762 0.037595 -0.147413
-0.224002 0.205682 -0.370231
0.142286 0.112890 0.208247
-0.167909 -0.112993 0.433170
0.360310 0.280429 0.418303
-0.441448 -0.210566 0.245712
-0.320542 -0.176728 -0.137500
-0.188113 -0.023910 -0.018838
-0.217894 0.044403 -0.037829
-0.180786 0.390997 -0.434247
-0.246622 0.017237 -0.077956
0.074663 0.171617 -0.021714
0.396279 -0.029356 -0.237216
-0.066612 0.194921 -0.197530
0.083733 -0.289066 0.414940
-0.101042 -0.325418 0.027448
-0.024044 -0.231634 0.100122
-0.406806 0.142256 0.187380
-0.397849 0.299431 0.125806
-0.028326 0.050388 -0.057340
0.164969 0.266163 -0.128265
0.126432 0.169115 0.203601
0.193167 -0.023012 0.367432
0.195683 -0.091489 0.198394
-0.076705 -0.037553 0.185026
0.147121 0.100567 -0.089189
0.133702 0.055764 -0.090461
0.154626 0.478350 0.079612
0.344195 -0.270182 -0.160055
0.228375 -0.112982 -0.009274
-0.367856 -0.030297 0.012589
-0.092996 -0.118633 0.364994
-0.108369 0.244621 0.033800
-0.375393 0.098864 0.154660
0.137728 -0.063660 -0.133682
0.173567 0.101865 0.151413
0.054313 -0.191891 0.004141
0.018177 0.134947 -0.039765
-0.372701 -0.012234 0.010762
0.059864 -0.259671 -0.241431
-0.250913 0.094949 0.130234
-0.132894 0.243639 0.298130
0.079817 0.106003 0.014676
-0.006261 -0.277678 0.247985
0.055782 -0.098046 -0.365894
0.235272 -0.005730 -0.254933
0.034766 0.060379 -0.248245
0.147991 -0.305530 -0.173109
0.009121 -0.079780 -0.274663
-0.152742 -0.248960 0.067725
-0.257551 0.086613 -0.224002
0.226267 -0.126043 -0.326944
0.072016 -0.458535 0.330369
0.115172 0.160161 -0.153849
0.271012 0.108521 -0.092950
-0.122619 0.331596 0.306289
-0.062897 -0.043291 0.047959
0.128834 -0.260328 -0.138667
0.092976 -0.105901 -0.014399
-0.209680 0.033497 0.026857
0.249442 0.009802 0.103876
-0.148747 0.292711 0.021050
0.179519 -0.292292 0.222696
-0.426835 -0.264542 0.134144
0.105813 -0.074012 0.169034
-0.106256 -0.218852 0.107835
-0.081269 -0.182007 -0.349270
0.166224 -0.018571 -0.048229
-0.285435 0.190736 -0.113419
0.324465 0.250436 -0.022067
0.053647 0.263547 0.157326
-0.410997 -0.382955 0.230284
0.215650 -0.209856 -0.434145
-0.473128 0.488842 -0.155692
-0.306480 -0.330933 0.179175
0.084658 -0.081788 0.261181
0.169599 0.065643 0.249226
0.165911 0.320532 0.004151
-0.387694 -0.100835 0.210306
-0.028787 0.297972 0.194391
-0.303931 -0.112795 0.287464
0.062774 -0.157656 -0.104491
-0.082535 0.114136 0.378213
0.073530 0.315599 -0.132797
0.334825 0.442816 -0.269370
-0.397235 -0.338440 0.041889
-0.278977 -0.381776 0.277297
0.051825 0.326069 -0.482928
-0.133901 0.054260 -0.355082
-0.115426 -0.122015 -0.131611
0.196528 -0.186617 0.287553
-0.106745 0.230557 -0.172457
-0.131746 -0.148650 0.369166
0.219632 0.378887 0.147576
0.116762 0.125988 0.024346
0.203144 0.091949 -0.352056
0.009306 -0.071558 0.058374
-0.197577 -0.308653 0.414888
0.361604 -0.084976 -0.229053
-0.158932 0.331156 -0.357377
0.146080 0.277785 0.422577
0.257391 -0.127613 -0.051961
0.134357 -0.271246 -0.137685
0.132225 -0.412870 0.313870
-0.233042 -0.286591 -0.074280
0.183117 0.070103 -0.177078
-0.016625 0.461179 0.009744
-0.164057 -0.373452 -0.058408
0.245567 -0.292866 -0.112800
-0.304610 -0.000387 0.143397
-0.455374 -0.430699 0.024536
-0.332130 0.126470 -0.299463
-0.329901 0.066826 -0.274225
-0.084252 -0.116272 0.092900
0.013529 -0.111444 0.050294
0.223341 0.183940 0.091638
-0.522836 0.004784 -0.150540
0.047180 -0.052856 0.211881
-0.033961 -0.185622 0.027897
0.191518 0.199123 0.070270
-0.087189 -0.151213 -0.028283
0.063370 0.177035 -0.187967
-0.097918 -0.074658 -0.074893
-0.086178 0.210240 0.083013
-0.051323 -0.236028 0.203593
0.124058 0.151295 0.207270
-0.142761 -0.169708 -0.071546
-0.266843 0.028606 -0.033782
0.154587 -0.186772 0.238848
0.208413 -0.087588 0.154370
0.143004 0.084787 0.002420
-0.035084 -0.117494 -0.153617
0.128055 0.054448 0.140824
-0.133793 0.165564 0.048869
-0.090730 -0.080106 -0.100068
-0.203550 -0.022611 0.059600
0.019985 -0.199019 0.276519
-0.149485 0.191175 -0.062053
0.007163 0.109045 -0.178279
0.199248 -0.176206 0.013541
0.162865 0.084925 0.200346
-0.147398 0.114329 -0.170738
-0.135805 -0.167446 0.173562
-0.104603 0.073197 0.004754
0.063674 -0.158844 0.179599
0.162041 -0.178000 0.219425
-0.163707 -0.141919 -0.001435
-0.124261 -0.219192 0.146884
-0.194634 -0.073814 0.211558
-0.222170 -0.101137 -0.111122
0.192078 0.064505 -0.174634
0.165572 0.120890 0.270507
0.207637 -0.186554 0.192956
0.199862 -0.019674 -0.060169
0.198561 0.025947 -0.179183
0.108478 0.031825 -0.194394
-0.030059 -0.006998 -0.035668
-0.243102 -0.196858 -0.173772
-0.017745 -0.252399 0.106419
-0.150262 -0.191449 -0.041082
-0.270205 0.009719 -0.067529
0.039513 -0.163470 -0.036855
-0.089674 -0.158169 -0.146648
0.108892 -0.140581 0.071344
-0.048840 0.093032 0.177937
-0.127369 0.130256 0.150632
0.030143 0.010593 0.072866
-0.042883 0.067531 -0.140051
-0.148664 -0.234990 0.200092
0.045902 0.092310 -0.185601
-0.254267 0.157706 0.101964
0.008175 0.126308 -0.120515
-0.053897 0.123351 0.044531
-0.034487 0.186157 0.019375
-0.032687 0.169112 0.049443
0.195093 -0.007214 0.231368
-0.014016 -0.030050 -0.043870
-0.209911 -0.237651 -0.021752
-0.255087 -0.260910 0.146850
-0.264147 0.039299 -0.095589
-0.079623 -0.211870 -0.094289
0.082620 -0.022209 -0.196315
0.150423 -0.119455 -0.108422
-0.215240 -0.099594 0.207700
-0.202887 0.003400 0.085415
0.158022 -0.257483 0.006099
-0.163057 0.191689 -0.070188
-0.257130 -0.133540 -0.089542
0.208074 0.119987 -0.162918
0.090127 -0.173087 0.119005
-0.076345 0.088600 0.191748
-0.139870 -0.110539 -0.176410
0.049384 -0.209663 -0.101502
-0.201833 0.044047 0.076243
0.096767 0.191567 -0.023941
0.005705 0.047982 0.215041
-0.078060 0.155575 -0.011161
-0.036907 0.001262 0.207306
-0.118257 -0.086063 0.036729
-0.121454 -0.236374 -0.034860
0.083598 -0.243005 -0.184210
-0.047059 -0.003588 -0.091720
-0.237141 -0.108635 0.058050
0.165151 -0.072734 0.178677
0.052223 -0.191305 0.000478
-0.116425 0.102454 0.017114
-0.037374 -0.099830 0.193572
0.088689 -0.239447 0.202578
-0.250097 -0.200363 0.277298
-0.202408 0.192014 0.023531
0.050284 -0.088384 -0.084433
-0.053264 0.128236 0.145736
-0.160346 0.027208 0.225271
-0.163280 0.083339 0.145443
-0.221347 -0.205107 -0.083982
-0.021967 0.103640 -0.176603
-0.034570 0.162133 0.197016
-0.071820 -0.111419 0.078195
-0.026243 -0.209139 0.041097
0.194019 0.056417 -0.084683
0.100600 0.060820 -0.097459
0.118409 -0.040156 0.083633
-0.131496 -0.147435 -0.125392
-0.083605 -0.151668 0.197853
0.104547 -0.104034 0.099518
-0.042801 -0.034900 0.246614
-0.230153 0.109279 -0.174696
0.144039 -0.139993 0.237671
0.054716 0.140442 -0.186047
-0.070615 -0.238112 0.276930
-0.002815 0.039612 -0.032166
0.097404 0.210484 0.170596
0.064257 -0.011087 -0.094991
-0.265878 0.017429 -0.157366
-0.204194 0.083319 0.198213
-0.066370 0.001849 -0.030441
-0.009239 -0.043334 -0.127658
-0.252662 0.151086 -0.147003
0.040618 0.068548 -0.039518
-0.107262 -0.219927 -0.194689
0.075909 0.130604 0.030413
0.163788 -0.135198 0.251615
0.037313 0.091926 -0.038627
0.131085 0.024639 -0.146086
0.098130 0.073823 -0.074211
-0.071017 -0.177292 0.072444
